G04 #@! TF.GenerationSoftware,KiCad,Pcbnew,(5.1.5)-2*
G04 #@! TF.CreationDate,2020-03-13T20:39:15+13:00*
G04 #@! TF.ProjectId,sony_plate,736f6e79-5f70-46c6-9174-652e6b696361,rev?*
G04 #@! TF.SameCoordinates,Original*
G04 #@! TF.FileFunction,Soldermask,Bot*
G04 #@! TF.FilePolarity,Negative*
%FSLAX46Y46*%
G04 Gerber Fmt 4.6, Leading zero omitted, Abs format (unit mm)*
G04 Created by KiCad (PCBNEW (5.1.5)-2) date 2020-03-13 20:39:15*
%MOMM*%
%LPD*%
G04 APERTURE LIST*
%ADD10C,0.100000*%
G04 APERTURE END LIST*
D10*
G36*
X34634239Y-108811467D02*
G01*
X34948282Y-108873934D01*
X35539926Y-109119001D01*
X36072392Y-109474784D01*
X36525216Y-109927608D01*
X36880999Y-110460074D01*
X37126066Y-111051718D01*
X37126066Y-111051719D01*
X37251000Y-111679803D01*
X37251000Y-112320197D01*
X37188533Y-112634239D01*
X37126066Y-112948282D01*
X36880999Y-113539926D01*
X36525216Y-114072392D01*
X36072392Y-114525216D01*
X35539926Y-114880999D01*
X34948282Y-115126066D01*
X34634239Y-115188533D01*
X34320197Y-115251000D01*
X33679803Y-115251000D01*
X33365761Y-115188533D01*
X33051718Y-115126066D01*
X32460074Y-114880999D01*
X31927608Y-114525216D01*
X31474784Y-114072392D01*
X31119001Y-113539926D01*
X30873934Y-112948282D01*
X30811467Y-112634239D01*
X30749000Y-112320197D01*
X30749000Y-111679803D01*
X30873934Y-111051719D01*
X30873934Y-111051718D01*
X31119001Y-110460074D01*
X31474784Y-109927608D01*
X31927608Y-109474784D01*
X32460074Y-109119001D01*
X33051718Y-108873934D01*
X33365761Y-108811467D01*
X33679803Y-108749000D01*
X34320197Y-108749000D01*
X34634239Y-108811467D01*
G37*
G36*
X186634239Y-108811467D02*
G01*
X186948282Y-108873934D01*
X187539926Y-109119001D01*
X188072392Y-109474784D01*
X188525216Y-109927608D01*
X188880999Y-110460074D01*
X189126066Y-111051718D01*
X189126066Y-111051719D01*
X189251000Y-111679803D01*
X189251000Y-112320197D01*
X189188533Y-112634239D01*
X189126066Y-112948282D01*
X188880999Y-113539926D01*
X188525216Y-114072392D01*
X188072392Y-114525216D01*
X187539926Y-114880999D01*
X186948282Y-115126066D01*
X186634239Y-115188533D01*
X186320197Y-115251000D01*
X185679803Y-115251000D01*
X185365761Y-115188533D01*
X185051718Y-115126066D01*
X184460074Y-114880999D01*
X183927608Y-114525216D01*
X183474784Y-114072392D01*
X183119001Y-113539926D01*
X182873934Y-112948282D01*
X182811467Y-112634239D01*
X182749000Y-112320197D01*
X182749000Y-111679803D01*
X182873934Y-111051719D01*
X182873934Y-111051718D01*
X183119001Y-110460074D01*
X183474784Y-109927608D01*
X183927608Y-109474784D01*
X184460074Y-109119001D01*
X185051718Y-108873934D01*
X185365761Y-108811467D01*
X185679803Y-108749000D01*
X186320197Y-108749000D01*
X186634239Y-108811467D01*
G37*
M02*
